# xmcd
#
# Track frame offsets: 
#        183
#        34698
#        69743
#        92488
#        132043
#        158083
#        200190
#        251888
#        297658
#        321795
#
# Disc length: 4772 seconds
#
# Revision: 3
# Processed by: cddbd v1.5.2PL0 Copyright (c) Steve Scherf et al.
# Submitted via: ExactAudioCopy v0.99pb5
#
DISCID=9612a20a
DTITLE=Rory Gallagher - Irish Tour
DYEAR=1974
DGENRE=Rock
TTITLE0=Cradle Rock
TTITLE1=I Wonder Who (Who's Gonna Be Your Sweet Man)
TTITLE2=Tattoo'd Lady
TTITLE3=Too Much Alcohol
TTITLE4=As The Crow Flies
TTITLE5=A Million Miles Away
TTITLE6=Walk On Hot Coals
TTITLE7=Who's That Comin'
TTITLE8=Back On My (Stompin' Ground)
TTITLE9=Just A Little Bit
EXTD=YEAR: 1973
EXTT0=
EXTT1=
EXTT2=
EXTT3=
EXTT4=
EXTT5=
EXTT6=
EXTT7=
EXTT8=
EXTT9=
PLAYORDER=
